<svg version="1" xmlns="http://www.w3.org/2000/svg" width="992" height="992" viewBox="0 0 744.000000 744.000000"><path d="M356.8 15c-39.6 2.5-81.7 11.8-117.7 26.2C144.7 78.7 70 157.5 37.5 253.5c-21.7 63.8-24.2 131.4-7.4 196.2 3.7 14.4 11 34.1 20 54 1 2.4 1.9 4.5 1.9 4.8 0 .9 6 13.5 6.5 13.5s-.8-3.8-2.4-6.7C54.2 511.7 51 504 51 503c0-.6-.4-1.8-.9-2.8-.5-.9-1.9-4.4-3.1-7.7-1.2-3.3-2.5-6.9-3-8-.9-2.2-3.1-9.9-5.6-19-.9-3.3-2.2-8.1-3-10.6-.7-2.5-1.6-6.4-1.9-8.5-.4-2.1-.8-4.8-1.1-5.9-.8-3.9-1.5-8.1-1.9-11.9-.3-2.2-.9-6.4-1.5-9.5-3.3-18.5-4-57.1-1.5-77.5.2-1.7.7-6 1-9.6.5-6.1 4-26.3 6.5-37.5.6-2.8 1.2-5.7 1.4-6.5.2-.8.6-2.2.9-3 .3-.8 1.2-4.2 2.1-7.5 5.1-18.4 13.8-40.9 22.9-59 17.2-34.1 34.9-59.3 63.3-89.8 5.6-6.1 27.7-25.2 38.9-33.8 13-9.9 34.4-23.6 46.5-29.7 2.5-1.2 5.2-2.7 6-3.1 2.3-1.4 13.9-6.6 22.6-10.2 4.4-1.8 8.1-3.5 8.4-3.8.3-.3 1.2-.7 2-.8 1.2-.1 11.6-3.6 18-6 .8-.3 2-.7 2.7-.9.7-.1 4.5-1.1 8.5-2.3 6.2-1.8 13.7-3.8 17.3-4.7 3.3-.8 22.7-4.4 26.5-4.9 2.5-.3 7.7-1 11.5-1.5 26.7-3.5 68.6-2.5 96.4 2.4 4.7.8 8.8 1.3 9.2 1 .4-.2 1 0 1.3.5.3.5 2.5 1.2 4.8 1.5 8.8 1.3 30.5 7.3 44.8 12.4 16 5.7 45.4 19.4 59.4 27.7 10.7 6.4 34.3 22.5 38.1 26 1.2 1.1 3.6 3.1 5.4 4.5 4 3.1 5.6 4.5 16.3 14.2 27.4 24.9 50.9 55 70.4 90.3 12.7 22.8 25.7 57.1 32 84.5 4.4 19 6.3 30.7 8.4 52.5 1.2 11.4 1.5 41.3.5 50-.3 2.7-.7 7.7-1 11-.2 3.3-1.1 10.9-2 17-1.7 12.1-1.6 11.6-3.4 19.7-.7 3.2-1.4 6.8-1.5 8-.2 1.3-.6 3-.9 3.8-.4.8-1.5 5.1-2.6 9.5-3.8 15-10 32.7-17.8 50.5-2.3 5.2-11.2 22.8-14.5 28.5-1.6 2.7-3.4 6.1-4.1 7.5-.6 1.4-1.5 2.9-2 3.5-.4.5-3.5 5.3-6.9 10.5-3.3 5.2-7.1 10.8-8.4 12.5-1.3 1.6-3 3.9-3.8 5-5.2 7.2-23.7 28.5-31.6 36.5-16.4 16.4-37.7 33.8-55.5 45.5-11.6 7.5-30.2 18.2-38.5 22-3.6 1.6-7.2 3.5-8.1 4.2-.8.7-2.1 1.3-2.7 1.3-.7 0-2 .4-3 .9-1.8.9-6.2 2.8-9.9 4.2-1.3.5-3.3 1.3-4.5 1.8-1.3.5-4.1 1.5-6.3 2.2-2.2.7-4.4 1.6-5 1.9-.5.4-3 1.2-5.5 1.9s-6.3 1.9-8.5 2.6c-2.2.8-5.6 1.7-7.5 2-1.9.4-3.9 1-4.5 1.3-.5.4-1.4.7-2 .8-.5.1-5.7 1.2-11.4 2.3-13.3 2.8-26.6 5.2-31.1 5.6-1.9.2-7.5.8-12.5 1.3-4.9.6-11.7 1-15 1-3.3.1-6.4.1-7 .2-.5.1-5.7.1-11.5 0-5.7 0-10.1.2-9.7.7.4.4 12.8.8 27.5.9 26.5.1 36.3-.5 56.7-4C584.6 694.9 695.8 586.3 725 445.5c4.7-22.4 6.1-37 6.5-65 .4-28-.2-38-3.5-60-9.1-59.3-30.1-112.2-63.3-158.7-22.7-31.8-55.3-63.6-88.2-86C512 31.9 433.8 10.2 356.8 15z"/><path d="M369.7 52.7c-.1 0-5.6.4-12.2.7-12.5.6-25.4 1.9-34 3.5-2.7.5-5.3.7-5.8.4-.4-.2-1.3 0-2 .5s-1.9 1-2.7 1c-3.1.1-20 3.7-24 5.1-1.4.5-6.5 2.1-11.5 3.6C246 77.1 214.9 92.7 185 114c-16.7 11.9-41.2 34.8-56.1 52.5-28 33.4-49.9 73.9-61.5 113.8-1.9 6.7-3.9 13.5-4.4 15.2-2.2 7.5-6.1 29.7-7.4 42.7-1.9 18.4-2 50.6-.2 67.8 2 18.4 8.1 49.4 11.3 57 .3.8.7 2.1.9 2.9.4 2.2 3.4 11.4 4.3 13.6.9 1.9 2.1 5.4 2.3 6.5.6 2.7 10 23.4 15.5 34 10.6 20.5 18 32 32.7 51 10.4 13.4 37.4 40.7 50.2 50.8 9.1 7.1 14.2 10.9 16.4 12.5 9 6.1 16.2 10.7 16.9 10.7.5 0 1.1.4 1.3.8.4 1.1 17.6 10.6 28.8 15.9 15.4 7.3 21 9.7 33.5 13.9 22 7.6 47.8 13.3 71.6 15.9 20.1 2.1 60.5 1.4 77.4-1.5 6.6-1.1 12.7-2 13.5-2.1.8-.1 4.4-.8 8-1.6 3.6-.8 7.2-1.6 8-1.8 11.7-2.6 35.6-10.1 45-14.2 1.9-.8 4.4-1.8 5.5-2.3 8-3 23.7-10.7 31-15 3.3-2 6.7-4 7.5-4.4 2.4-1.1 4.9-2.7 14.4-9.1 4.9-3.3 9.6-6.5 10.5-7 3.5-2.1 14.1-10.8 14.1-11.6 0-.4.6-.9 1.4-1.1 1.9-.4 13.6-10.8 23.5-20.8 10.1-10.2 22.8-25 29.6-34.3 2.8-3.8 6-8.1 7.3-9.7 1.2-1.5 2.2-3.2 2.2-3.7 0-.6.9-1.8 2-2.8 1.1-1 2-2.2 2-2.6 0-.4 1.3-2.7 2.9-5.1 4.8-7.2 21.1-38.3 21.1-40.3 0-.2 1.1-2.8 2.4-5.7 3.5-7.9 11.4-30.9 13.1-38.3.2-1.1 1-4.5 1.8-7.5 2.3-9.2 3.7-15.3 4.2-18.5.2-1.7.6-4.8 1-7 1.7-11 2.3-15.2 2.4-17 0-1.1.4-6.1.9-11 .9-8.8.7-34.6-.2-45.5-1.7-19.4-2.2-23-5.6-39.1-3-14.5-3.6-17.2-4.2-19.9-.7-2.8-4-13.5-4.8-15.5-.5-1.1-2-5.6-3.5-10-1.4-4.4-3-8.9-3.5-10-3.3-7.8-6.4-14.5-8.1-17.6-1-2-1.9-4.1-1.9-4.6 0-1.8-14.3-27-17.3-30.6-1.4-1.7-1.3-1.2.3 1.8 1.3 2.2 4.1 7.4 6.3 11.5s4.4 8 4.8 8.6c.5.6.6 1.4.2 1.7-.3.4-.2.7.4.7.6 0 1.3 1 1.6 2.2.5 1.9.3 1.8-1.9-.7-1.4-1.7-3.4-4.6-4.4-6.5-1-1.9-4.4-7.3-7.6-12-5-7.5-8.5-12.3-17.7-24.8-7-9.3-33.8-37.4-46.4-48.5-7.7-6.8-30-23.1-40.5-29.7-11.4-7.1-37.7-20.9-47.2-24.7-25.3-10.1-47.2-16.8-70.9-21.7-6.6-1.4-12.2-2.8-12.5-3.2-.9-.9 15.1.3 20.3 1.6 5 1.2 5.5 1.2 5.5.2 0-.5-.6-.9-1.2-.9-.7 0-2.6-.4-4.3-.7-6.4-1.5-19.4-3-34-4.1-8-.5-25.5-1.1-25.8-.8zM408 57c0 1.3-3 1.3-5 0-1.1-.7-.7-1 1.8-1 1.7 0 3.2.4 3.2 1zm-60 131.7c0 10.8.3 19.4.6 19 .3-.3 1.6.5 2.8 1.9 2.1 2.5 2.2 2.5 9.9 1.3 4.3-.6 8.5-1.8 9.3-2.6 1.1-1.2 1.4-5.2 1.4-20.4V169h19v18c0 12.3.3 18 1.1 18 .6 0 1.8.9 2.7 2 1.4 1.6 3.8 2.2 11.7 3 26.3 2.9 49.9 10.2 70.5 22.2l7 4V273l-7.2-5.3c-13.8-10.1-24.6-15.8-39.4-21-15.5-5.4-32.7-8.4-41.4-7.2l-5 .7v129.9c0 103.8.3 129.9 1.3 129.9.7 0 1.8.9 2.5 2 1.5 2.5 7.1 2.6 20.3.4 22.3-3.7 46.8-14.8 64.6-29.1l4.3-3.4v34.9l-6.3 4c-17.9 11.3-42.6 20.6-61.3 23.1-4.3.6-11.8 1.5-16.6 2.2l-8.8 1.1V574h-19v-17.8c0-9.7-.3-18.7-.6-19.9-.8-3-2.4-3.4-13.6-3.9l-9.8-.3V574h-20v-23.8c0-13-.4-24.2-.8-24.8-.4-.6-5.9-3.5-12.2-6.6-33.8-16.3-57.4-43.8-70.1-81.8-11.1-33.2-12.5-82.5-3.3-119.3 10.6-43 37.1-76.2 75.2-94.3 5.4-2.6 10-5.1 10.4-5.8.4-.6.8-11.5.8-24.2s.3-23.4.7-23.7c.3-.4 4.8-.7 10-.7h9.3v19.7z"/><path d="M354.8 242.7l-6.8 1.6v250.8l2.8 2.4c1.6 1.5 5.5 3.1 10 4.1 12.6 2.8 11.2 18.4 11.2-129.3 0-85.9-.3-128.1-1-129.4-1.3-2.3-6.4-2.4-16.2-.2zM320.7 257.9c-1.5.3-5.6 3.1-9 6.1-26.3 23-38.7 57-38.7 105.8 0 38.3 6.6 64.8 21.7 87.5 9.1 13.6 25.7 29.2 30.5 28.5l2.3-.3.3-112c.1-61.6 0-113-.3-114.3-.6-2.3-1.7-2.5-6.8-1.3zM437 59.9c.8.5 3.5 1.2 6 1.5 2.9.4 3.8.3 2.5-.2-2.8-1.2-10.4-2.3-8.5-1.3zM450 63c1.4.4 3.4.8 4.5.8l2 .1-2-.9c-1.1-.5-3.1-.8-4.5-.8h-2.5l2.5.8zM461.5 66c1.7.4 3.8 1.1 4.8 1.5.9.4 1.7.3 1.7-.3 0-.5-1.4-1.2-3.1-1.6-4.4-.8-7.1-.6-3.4.4zM469.6 67.9c1.2 1.1 7.3 3.1 9.3 3 .9 0 .5-.4-.9-.9-6.6-2.2-9.3-2.9-8.4-2.1zM484.9 73.5c1.8.8 3.6 1.5 4 1.5 1.3-.1-4.5-2.9-5.9-2.9-.8 0 0 .6 1.9 1.4zM491 75.9c2.4 1.4 6.6 2.5 5.5 1.3-.5-.5-2.3-1.2-4-1.6-2-.4-2.5-.3-1.5.3zM517.5 88.1c9.9 5 18.7 9.7 19.6 10.5.8.8 1.8 1.4 2.2 1.4 2.6 0 40.1 27.8 48.5 35.9 2.3 2.3 4.2 3.6 4.2 2.9-.1-.7-4-4.5-8.8-8.3-4.7-3.9-9.6-7.9-10.8-9-1.1-1.2-4.4-3.6-7.2-5.4-2.9-1.8-5.2-3.7-5.2-4.2s-.7-.9-1.5-.9-1.5-.5-1.5-1c0-.6-.4-1-.9-1s-4.2-2.3-8.2-5c-4-2.8-7.7-5-8.2-5-.6 0-1.8-.6-2.6-1.4-.9-.7-3.6-2.4-6.1-3.7-2.5-1.3-4.7-2.7-5-3-.3-.3-2.7-1.6-5.5-2.9-2.7-1.2-8.2-3.8-12.1-5.6-14.4-6.9-8.3-3 9.1 5.7zM600.5 148c5.8 5.9 6.5 6.5 6.5 5.5 0-.7-10.9-11.5-11.7-11.5-.4 0 1.9 2.7 5.2 6zM612.3 160.5c2.8 3 5.3 5.2 5.6 5 .5-.6-9-10.5-10-10.5-.4 0 1.6 2.5 4.4 5.5zM620.6 170.2c4.7 5.3 4.9 5.4 2.9 2.3-2.2-3.5-4-5.5-5.1-5.5-.4 0 .5 1.5 2.2 3.2zM626.6 177.3c.3 1 .9 1.5 1.2 1.2.3-.3 0-1.1-.7-1.8-1-.9-1.1-.8-.5.6zM630 181.7c0 .6 1.5 3 3.3 5.4 1.8 2.4 4.5 6.3 6.1 8.6 1.6 2.4 3 4.3 3.3 4.3.7 0-2.9-6.3-4.8-8.3-1-1.2-1.9-2.4-1.9-2.8 0-.3-1.3-2.3-3-4.4-1.6-2.1-3-3.3-3-2.8zM59 523.2c0 .3.7 1.9 1.5 3.4.8 1.6 1.5 2.2 1.5 1.4-.1-.8-.7-2.4-1.5-3.4-.8-1.1-1.5-1.7-1.5-1.4zM63 531.7c0 .4.5 1.5 1 2.3.8 1.3 1 1.3 1-.2 0-.9-.4-2-1-2.3-.5-.3-1-.3-1 .2zM66 537.9c0 .5.5 1.3 1 1.6.6.3 1 .2 1-.4 0-.5-.4-1.3-1-1.6-.5-.3-1-.2-1 .4zM69 542.5c0 .5.5 1.7 1 2.5s1 1 1 .5c0-.6-.5-1.7-1-2.5s-1-1.1-1-.5zM74.2 552c.7 1 1.4 1.8 1.5 1.6.6-.6-.9-3.6-1.8-3.6-.5 0-.4.9.3 2zM91.6 578.3c.3 1 .9 1.5 1.2 1.2.3-.3 0-1.1-.7-1.8-1-.9-1.1-.8-.5.6zM112 603.5c1.9 1.9 3.6 3.5 3.9 3.5.3 0-1-1.6-2.9-3.5s-3.6-3.5-3.9-3.5c-.3 0 1 1.6 2.9 3.5zM125.5 618c1 1.1 2 2 2.3 2 .3 0-.3-.9-1.3-2s-2-2-2.3-2c-.3 0 .3.9 1.3 2zM130 622.4c0 .2.7.9 1.5 1.6.9.7 1.5.8 1.5.2 0-.5-.7-1.2-1.5-1.6-.8-.3-1.5-.4-1.5-.2zM135 627.4c0 .2.8 1 1.8 1.7 1.5 1.3 1.6 1.2.3-.4s-2.1-2.1-2.1-1.3zM142 633.5c1.3 1.4 2.6 2.5 2.8 2.5.3 0-.5-1.1-1.8-2.5s-2.6-2.5-2.8-2.5c-.3 0 .5 1.1 1.8 2.5zM149.3 640c1.4 1.1 2.8 2 3.2 2 .4 0-.4-.9-1.8-2s-2.8-2-3.2-2c-.4 0 .4.9 1.8 2zM154.6 644.5c1 .8 2.4 1.4 2.9 1.4.6 0 .1-.6-.9-1.4-1.1-.8-2.4-1.5-3-1.5-.5 0-.1.7 1 1.5zM158 647.4c0 .2.7.7 1.6 1 .8.3 1.2.2.9-.4-.6-1-2.5-1.4-2.5-.6zM165.1 652.3c.2.1 1.3.9 2.4 1.7 1.9 1.4 1.9 1.4.6-.3-.7-.9-1.8-1.7-2.4-1.7-.6 0-.8.1-.6.3zM170.1 656.3c.2.2 2 1.4 3.9 2.6l3.5 2.3-2.8-2.6c-1.5-1.4-3.3-2.6-3.9-2.6-.6 0-.9.1-.7.3zM178 661.3c0 .3 1.2 1.2 2.6 2.2 1.5.9 2.3 1.2 2 .6-.7-1.1-4.6-3.5-4.6-2.8zM186.1 666.8c3.6 2.7 7.9 5.3 7.9 4.8 0-.6-8.9-6.6-9.7-6.6-.3 0 .5.8 1.8 1.8zM196 673.1c2.6 1.7 7 4 7 3.5s-6.9-4.6-7.8-4.6c-.4 0 0 .5.8 1.1zM206.1 678.3c.2.1 1.3.9 2.4 1.7 1.9 1.4 1.9 1.4.6-.3-.7-.9-1.8-1.7-2.4-1.7-.6 0-.8.1-.6.3zM211.1 681.4c1 .9 8.9 4.6 8.9 4.1s-7.5-4.5-8.6-4.5c-.4 0-.5.2-.3.4zM225 687.9c0 .9 3 2.4 3.6 1.8.2-.1-.6-.8-1.6-1.5-1.1-.7-2-.8-2-.3zM235.5 693c.3.5.8 1 1.1 1 .2 0 .4-.5.4-1 0-.6-.5-1-1.1-1-.5 0-.7.4-.4 1zM238 694.4c0 .2.9.6 2 .9 1.1.3 1.8.1 1.4-.4-.5-.9-3.4-1.3-3.4-.5zM251 699.4c0 .2.9.6 2 .9 1.1.3 1.8.1 1.4-.4-.5-.9-3.4-1.3-3.4-.5zM262.8 703.7c.7.3 1.6.2 1.9-.1.4-.3-.2-.6-1.3-.5-1.1 0-1.4.3-.6.6zM306 715c0 .5.5 1 1 1 .6 0 1-.5 1-1 0-.6-.4-1-1-1-.5 0-1 .4-1 1zM311.8 716.7c.6.2 1.8.2 2.5 0 .6-.3.1-.5-1.3-.5-1.4 0-1.9.2-1.2.5zM326.8 718.7c.6.2 1.8.2 2.5 0 .6-.3.1-.5-1.3-.5-1.4 0-1.9.2-1.2.5zM332.3 719.7c.9.2 2.3.2 3 0 .6-.3-.1-.5-1.8-.5-1.6 0-2.2.2-1.2.5zM340 720.2c0 .4 1.4.8 3 .8 1.7 0 3-.2 3-.4s-1.3-.6-3-.8c-1.6-.3-3-.1-3 .4zM353.3 721.7c.9.2 2.3.2 3 0 .6-.3-.1-.5-1.8-.5-1.6 0-2.2.2-1.2.5z"/></svg>