<?xml version="1.0" standalone="no"?>
<!DOCTYPE svg PUBLIC "-//W3C//DTD SVG 20010904//EN"
 "http://www.w3.org/TR/2001/REC-SVG-20010904/DTD/svg10.dtd">
<svg version="1.0" xmlns="http://www.w3.org/2000/svg"
 width="533.000000pt" height="533.000000pt" viewBox="0 0 533.000000 533.000000"
 preserveAspectRatio="xMidYMid meet">
<metadata>
Created by potrace 1.11, written by Peter Selinger 2001-2013
</metadata>
<g transform="translate(0.000000,533.000000) scale(0.100000,-0.100000)"
fill="#000000" stroke="none">
<path d="M2525 4929 c-964 -52 -1802 -739 -2054 -1682 -53 -198 -73 -357 -73
-582 0 -225 20 -387 72 -580 210 -788 827 -1405 1615 -1615 193 -52 355 -72
580 -72 225 0 384 20 582 73 637 170 1163 604 1460 1204 229 461 287 1035 158
1545 -110 435 -351 832 -687 1133 -458 409 -1032 610 -1653 576z m415 -255
c1001 -136 1750 -993 1751 -2005 1 -548 -206 -1051 -592 -1438 -387 -386 -887
-593 -1434 -593 -547 0 -1049 207 -1435 592 -385 386 -592 888 -592 1435 0
547 207 1047 593 1434 453 452 1074 661 1709 575z"/>
<path d="M2350 3952 l0 -148 -55 -23 c-275 -114 -473 -406 -530 -781 -17 -112
-19 -366 -4 -476 54 -387 245 -660 542 -769 l47 -18 0 -193 0 -194 100 0 100
0 0 175 0 175 100 0 100 0 0 -175 0 -175 100 0 100 0 0 198 0 199 43 12 c66
20 197 91 237 130 30 29 39 46 45 87 7 57 -2 142 -17 162 -17 20 -38 14 -117
-37 -71 -45 -173 -101 -186 -101 -3 0 -5 351 -5 780 l0 780 53 -26 c28 -15 84
-49 123 -75 102 -71 127 -64 140 35 20 141 -45 221 -241 297 l-70 27 -3 141
-3 141 -99 0 -100 0 0 -120 0 -120 -69 0 c-38 0 -83 -3 -100 -6 l-31 -6 0 126
0 126 -100 0 -100 0 0 -148z m400 -1172 l0 -830 -69 0 c-38 0 -83 3 -100 6
l-31 7 0 818 c0 770 1 818 18 822 9 3 54 5 100 6 l82 1 0 -830z m-400 -5 c0
-834 9 -762 -85 -667 -91 91 -153 216 -188 382 -25 116 -29 392 -8 510 34 191
100 338 201 442 36 37 69 68 73 68 4 0 7 -331 7 -735z"/>
</g>
</svg>
